<?xml version="1.0" encoding="UTF-8" standalone="no"?>
<svg
   xmlns:dc="http://purl.org/dc/elements/1.1/"
   xmlns:cc="http://creativecommons.org/ns#"
   xmlns:rdf="http://www.w3.org/1999/02/22-rdf-syntax-ns#"
   xmlns:svg="http://www.w3.org/2000/svg"
   xmlns="http://www.w3.org/2000/svg"
   xmlns:sodipodi="http://sodipodi.sourceforge.net/DTD/sodipodi-0.dtd"
   xmlns:inkscape="http://www.inkscape.org/namespaces/inkscape"
   height="432pt"
   viewBox="-43 0 345.60156 432"
   width="345.60156pt"
   version="1.1"
   id="svg36"
   sodipodi:docname="dashboard_icon.svg"
   inkscape:version="0.92.4 (5da689c313, 2019-01-14)">
  <metadata
     id="metadata42">
    <rdf:RDF>
      <cc:Work
         rdf:about="">
        <dc:format>image/svg+xml</dc:format>
        <dc:type
           rdf:resource="http://purl.org/dc/dcmitype/StillImage" />
      </cc:Work>
    </rdf:RDF>
  </metadata>
  <defs
     id="defs40" />
  <sodipodi:namedview
     pagecolor="#ffffff"
     bordercolor="#666666"
     borderopacity="1"
     objecttolerance="10"
     gridtolerance="10"
     guidetolerance="10"
     inkscape:pageopacity="0"
     inkscape:pageshadow="2"
     inkscape:window-width="1366"
     inkscape:window-height="705"
     id="namedview38"
     showgrid="false"
     inkscape:zoom="0.57943472"
     inkscape:cx="239.71938"
     inkscape:cy="271.02638"
     inkscape:window-x="-8"
     inkscape:window-y="-8"
     inkscape:window-maximized="1"
     inkscape:current-layer="svg36" />
  <g
     id="g866"
     transform="translate(-43)">
    <path
       id="path2"
       d="M 86.710938,12 H 116.71094 V 37.007812 H 86.710938 Z m 0,0"
       inkscape:connector-curvature="0"
       style="fill:#d4e1f4" />
    <path
       id="path4"
       d="M 42,404.47656 V 47.34375 c 0.01172,-8.570312 6.953125,-15.511719 15.523438,-15.523438 h -30 C 18.953125,31.832031 12.011719,38.773438 12,47.34375 v 357.13281 c 0.01172,8.57031 6.957031,15.51563 15.527344,15.52344 h 30 C 48.957031,419.99219 42.011719,413.04687 42,404.47656 Z m 0,0"
       inkscape:connector-curvature="0"
       style="fill:#d4e1f4" />
    <path
       id="path6"
       d="m 80.710938,0 c -3.316407,0 -6,2.6875 -6,6 V 19.820312 H 27.527344 C 12.332031,19.835938 0.0195312,32.148438 0,47.34375 V 404.47656 C 0.0195312,419.67187 12.332031,431.98437 27.527344,432 H 318.07422 c 15.19531,-0.0156 27.50781,-12.32813 27.52734,-27.52344 V 47.34375 C 345.58203,32.152344 333.26953,19.839844 318.07812,19.820312 H 281.65234 V 6 c 0,-3.3125 -2.6875,-6 -6,-6 z m 6,12 H 269.65234 V 37.007812 H 86.710938 Z M 318.07422,31.820312 c 8.57031,0.0078 15.51562,6.953126 15.52734,15.523438 v 357.13281 c -0.0117,8.57031 -6.95703,15.51563 -15.52734,15.52344 H 27.527344 C 18.957031,419.99219 12.011719,413.04687 12,404.47656 V 47.34375 c 0.01172,-8.570312 6.953125,-15.511719 15.523438,-15.523438 h 47.183593 v 11.1875 c 0,3.3125 2.683594,6 6,6 H 275.65234 c 3.3125,0 6,-2.6875 6,-6 v -11.1875 z m 0,0"
       inkscape:connector-curvature="0"
       style="fill:#0635c9" />
    <g
       id="g34"
       style="fill:#1ae5be">
      <path
         id="path8"
         d="m 179.42969,251.10156 c 0,2.23047 0.34765,4.44922 1.03515,6.57422 l -18.92578,15.96094 c -3.8789,-4.96094 -9.74609,-7.96485 -16.03515,-8.21485 -6.29297,-0.25 -12.37891,2.27735 -16.64063,6.91407 l -19.375,-13.49219 c 1.96875,-10.56641 -4.1289,-20.97266 -14.308592,-24.41797 C 85,230.98047 73.835938,235.54297 68.980469,245.13281 c -4.851563,9.58985 -1.917969,21.28516 6.886719,27.44922 8.804687,6.16406 20.800781,4.91406 28.148442,-2.92578 l 19.44531,13.54297 c -1.41797,8.01562 1.80859,16.14453 8.33984,21.00391 6.52734,4.85937 15.23828,5.625 22.51172,1.96875 7.27344,-3.65235 11.86328,-11.09375 11.85937,-19.23438 0,-0.48828 -0.0391,-0.96484 -0.0742,-1.44531 l 21.1289,-17.82031 c 7.26953,6.05078 17.63672,6.64453 25.54688,1.46093 7.91015,-5.18359 11.5039,-14.92578 8.85547,-24.0039 l 18.26171,-16.73828 c 6.23829,8.52734 17.75391,11.2539 27.15625,6.42968 9.39844,-4.82422 13.89844,-15.76953 10.60547,-25.8125 -3.28906,-10.04297 -13.39453,-16.19922 -23.82812,-14.52343 -10.4336,1.67578 -18.10156,10.6875 -18.08203,21.25781 0,0.0547 0.0117,0.10547 0.0117,0.16015 l -20.69532,18.96875 c -6.35547,-5.54687 -15.36718,-6.85937 -23.04297,-3.36328 -7.67578,3.4961 -12.59765,11.15625 -12.58593,19.59375 z m -91.101565,13.38672 c -5.261719,0 -9.527344,-4.26953 -9.527344,-9.53125 0,-5.26172 4.265625,-9.52734 9.527344,-9.52734 5.265625,0 9.53125,4.26562 9.53125,9.52734 -0.0078,5.26172 -4.269531,9.51953 -9.53125,9.52734 z m 56.312495,31.97656 c -5.26171,0 -9.52734,-4.26562 -9.52734,-9.52734 0,-5.26563 4.26563,-9.53125 9.52734,-9.53125 5.26563,0 9.53125,4.26562 9.53125,9.53125 -0.008,5.25781 -4.26953,9.51953 -9.52734,9.52344 z m 112.62891,-90.2539 c 5.26172,0 9.52734,4.26562 9.52734,9.52734 0,5.26563 -4.26562,9.53125 -9.52734,9.53125 -5.26172,0 -9.53125,-4.26953 -9.53125,-9.53125 0.008,-5.26172 4.26953,-9.52734 9.53125,-9.53125 z m -46.78125,44.89062 c 0,5.26172 -4.26953,9.52735 -9.53125,9.52735 -5.26172,0 -9.53125,-4.26563 -9.53125,-9.52735 0,-5.26562 4.26953,-9.53125 9.53125,-9.53125 5.26172,0.004 9.52344,4.26953 9.53125,9.53125 z m 0,0"
         inkscape:connector-curvature="0" />
      <path
         id="path10"
         d="m 243.51953,251.38672 c -3.3125,0 -6,2.6875 -6,6 v 116.40625 c 0,3.3125 2.6875,6 6,6 h 27.5 c 3.3125,0 6,-2.6875 6,-6 V 257.38672 c 0,-3.3125 -2.6875,-6 -6,-6 z m 21.5,116.40625 h -15.5 V 263.38672 h 15.5 z m 0,0"
         inkscape:connector-curvature="0" />
      <path
         id="path12"
         d="m 187.20703,286.60547 c -3.31641,0 -6,2.6875 -6,6 v 81.1875 c 0,3.3125 2.68359,6 6,6 h 27.5 c 3.3125,0 6,-2.6875 6,-6 v -81.1875 c 0,-3.3125 -2.6875,-6 -6,-6 z m 21.5,81.1875 h -15.5 v -69.1875 h 15.5 z m 0,0"
         inkscape:connector-curvature="0" />
      <path
         id="path14"
         d="m 130.89062,322.77344 c -3.31249,0 -5.99999,2.68359 -5.99999,6 v 45.01953 c 0,3.3125 2.6875,6 5.99999,6 h 27.5 c 3.31641,0 6,-2.6875 6,-6 v -45.01953 c 0,-3.31641 -2.68359,-6 -6,-6 z m 21.5,45.01953 h -15.5 v -33.01953 h 15.5 z m 0,0"
         inkscape:connector-curvature="0" />
      <path
         id="path16"
         d="m 74.578125,290.94141 c -3.3125,0 -6,2.6875 -6,6 v 76.85156 c 0,3.3125 2.6875,6 6,6 h 27.500005 c 3.3125,0 6,-2.6875 6,-6 v -76.85156 c 0,-3.3125 -2.6875,-6 -6,-6 z m 21.5,76.85156 h -15.5 v -64.85156 h 15.5 z m 0,0"
         inkscape:connector-curvature="0" />
      <path
         id="path18"
         d="m 59.1875,169.08984 h 98.09375 c 3.3125,0 6,-2.6875 6,-6 v -53.80468 c 0,-3.3125 -2.6875,-6 -6,-6 H 59.1875 c -3.3125,0 -6,2.6875 -6,6 v 53.80468 c 0,3.3125 2.6875,6 6,6 z m 6,-53.80468 h 86.09375 v 41.80468 H 65.1875 Z m 0,0"
         inkscape:connector-curvature="0" />
      <path
         id="path20"
         d="m 286.41406,157.08984 h -4.16797 c -3.3125,0 -6,2.6875 -6,6 0,3.3125 2.6875,6 6,6 h 4.16797 c 3.3125,0 6,-2.6875 6,-6 0,-3.3125 -2.6875,-6 -6,-6 z m 0,0"
         inkscape:connector-curvature="0" />
      <path
         id="path22"
         d="m 208.66016,169.08984 h 45.76953 c 3.3125,0 6,-2.6875 6,-6 0,-3.3125 -2.6875,-6 -6,-6 h -45.76953 c -3.31641,0 -6,2.6875 -6,6 0,3.3125 2.68359,6 6,6 z m 0,0"
         inkscape:connector-curvature="0" />
      <path
         id="path24"
         d="m 286.41406,103.28516 h -46.13672 c -3.3125,0 -6,2.6875 -6,6 0,3.3125 2.6875,6 6,6 h 46.13672 c 3.3125,0 6,-2.6875 6,-6 0,-3.3125 -2.6875,-6 -6,-6 z m 0,0"
         inkscape:connector-curvature="0" />
      <path
         id="path26"
         d="m 208.66016,115.28516 h 3.80078 c 3.3125,0 6,-2.6875 6,-6 0,-3.3125 -2.6875,-6 -6,-6 h -3.80078 c -3.31641,0 -6,2.6875 -6,6 0,3.3125 2.68359,6 6,6 z m 0,0"
         inkscape:connector-curvature="0" />
      <path
         id="path28"
         d="m 187.28125,207.08984 h -70.67578 c -3.3125,0 -6,2.6875 -6,6 0,3.3125 2.6875,6 6,6 h 70.67578 c 3.3125,0 6,-2.6875 6,-6 0,-3.3125 -2.6875,-6 -6,-6 z m 0,0"
         inkscape:connector-curvature="0" />
      <path
         id="path30"
         d="m 94.644531,219.08984 c 3.3125,0 5.999999,-2.6875 5.999999,-6 0,-3.3125 -2.687499,-6 -5.999999,-6 h -7.886719 c -3.3125,0 -6,2.6875 -6,6 0,3.3125 2.6875,6 6,6 z m 0,0"
         inkscape:connector-curvature="0" />
      <path
         id="path32"
         d="m 59.1875,219.08984 h 5.984375 c 3.3125,0 6,-2.6875 6,-6 0,-3.3125 -2.6875,-6 -6,-6 H 59.1875 c -3.3125,0 -6,2.6875 -6,6 0,3.3125 2.6875,6 6,6 z m 0,0"
         inkscape:connector-curvature="0" />
    </g>
  </g>
  <path
     style="fill:#ffffff;fill-opacity:1;stroke-width:2.44067788"
     d="M 63.494293,553.51342 56.646328,547.62346 56.025384,303.9541 C 55.414993,64.426027 55.486974,60.149934 60.260696,52.352542 c 4.734763,-7.733756 5.284579,-7.932203 21.976877,-7.932203 h 17.120619 v 9.501587 c 0,6.412701 1.255058,9.983198 3.860628,10.98305 2.12336,0.814806 63.5898,1.481465 136.5921,1.481465 128.72977,0 132.80763,-0.142329 135.25802,-4.720902 1.3896,-2.596497 2.52654,-7.53887 2.52654,-10.983051 v -6.262149 h 27.89065 c 27.22369,0 28.01161,0.153785 32.94915,6.430842 5.04225,6.410176 5.05826,7.216026 4.98089,250.779659 -0.0598,188.23104 -0.76046,245.2382 -3.05085,248.22135 -7.2854,9.48894 -8.53595,9.5512 -191.82922,9.5512 H 70.342259 Z M 141.89572,504.3138 c 5.73087,-5.73086 5.73087,-108.63233 0,-114.36319 -2.87477,-2.87478 -8.94387,-3.83536 -24.23244,-3.83536 -15.28858,0 -21.357673,0.96058 -24.232448,3.83536 -5.730873,5.73086 -5.730873,108.63233 0,114.36319 2.874775,2.87477 8.943868,3.83535 24.232448,3.83535 15.28857,0 21.35767,-0.96058 24.23244,-3.83535 z m 75.69696,-1.58908 c 4.42085,-6.31164 5.47708,-55.7435 1.41914,-66.41668 -2.32018,-6.10255 -2.95474,-6.26058 -25.13898,-6.26058 -14.44699,0 -23.82835,1.06962 -25.68753,2.92881 -1.99396,1.99396 -2.92881,13.64085 -2.92881,36.48889 0,39.73058 -0.90927,38.50048 28.53957,38.60977 17.94267,0.0666 20.38755,-0.48308 23.79661,-5.35021 z m 74.09094,2.49562 c 2.11655,-2.11656 2.92881,-19.30469 2.92881,-61.97616 0,-51.59195 -0.48745,-59.2344 -3.86063,-60.52881 -7.14828,-2.74306 -43.84749,-1.61063 -46.90547,1.44734 -2.11355,2.11356 -2.92882,19.06458 -2.92882,60.89567 0,52.63171 0.39312,58.19582 4.27119,60.4546 6.10069,3.55333 42.88045,3.32183 46.49492,-0.29264 z m 73.86892,0.40227 c 4.52314,-2.42071 4.71934,-5.92252 4.68354,-83.59322 -0.0195,-44.58667 -0.93505,-82.48154 -2.03223,-84.21083 -1.46038,-2.30178 -8.47979,-2.95569 -26.1999,-2.44068 l -24.20508,0.70348 -0.64302,82.69339 c -0.45875,58.99484 0.15157,83.65072 2.12934,86.0339 3.36128,4.05006 39.04753,4.67787 46.26735,0.81396 z M 209.20486,407.50484 c 5.54916,-3.46549 12.18723,-14.73508 12.18723,-20.6905 0,-2.6117 5.96674,-9.80076 13.61411,-16.40302 12.28751,-10.60826 14.20132,-11.48602 19.64027,-9.00786 20.34558,9.27006 42.40664,-4.91106 42.40664,-27.25951 0,-6.91191 1.97041,-9.94301 11.91426,-18.32779 11.69327,-9.8599 11.99376,-9.95843 16.19949,-5.31116 10.24677,11.32258 33.53406,7.03928 42.60335,-7.83609 C 380.38496,281.97825 366.9059,259.2 342.04744,259.2 c -9.61151,0 -12.56104,1.24807 -19.61128,8.29831 -4.68605,4.68604 -8.31171,10.79501 -8.32911,14.03389 -0.022,3.88416 -4.41169,9.57803 -13.60251,17.63912 -12.27959,10.77023 -14.14655,11.64162 -19.60947,9.15255 -20.42724,-9.30728 -42.41823,4.90244 -42.41823,27.40901 0,7.07957 -1.86443,9.99199 -11.59322,18.1097 l -11.59322,9.67344 -6.51937,-4.89761 c -7.94517,-5.96873 -23.22452,-6.44466 -31.55999,-0.98306 -5.7036,3.73714 -6.48611,3.55865 -17.26633,-3.93838 -9.08138,-6.31557 -11.58337,-9.64319 -12.78044,-16.99785 -0.81865,-5.02975 -4.68085,-12.71789 -8.58265,-17.08475 -6.37731,-7.13745 -8.45107,-7.93979 -20.52151,-7.93979 -10.80956,0 -14.64139,1.14057 -19.654795,5.85042 -13.929225,13.08582 -13.357033,32.98828 1.303058,45.32393 8.664737,7.29092 24.677207,8.40516 33.362697,2.32162 5.18813,-3.63392 6.20282,-3.41597 17.32554,3.72147 9.77582,6.27313 12.06709,9.15047 13.27741,16.67352 1.88561,11.7206 7.60517,19.71536 17.14986,23.97192 7.98992,3.56322 20.90132,2.63852 28.38098,-2.03262 z M 93.077325,289.53897 c 2.93862,-2.9386 3.226827,-4.9585 1.237799,-8.67503 -3.508086,-6.55492 -22.532191,-5.73248 -23.815383,1.02958 -1.951547,10.28409 14.401356,15.8217 22.577584,7.64545 z m 40.533855,-1.20684 c 4.31953,-8.07113 -1.14007,-12.42422 -14.49184,-11.55475 -11.94262,0.7777 -15.83149,5.9027 -9.90113,13.04834 4.64714,5.59946 21.13726,4.58975 24.39297,-1.49359 z m 122.68507,-0.12252 c 1.36557,-2.16669 1.79339,-5.73618 0.9507,-7.9322 -1.35249,-3.52442 -7.65995,-3.99266 -53.78449,-3.99266 -42.43531,0 -52.79885,0.65851 -55.16123,3.505 -2.17113,2.61605 -2.2186,4.79482 -0.18717,8.59058 2.64399,4.94035 4.19225,5.06678 54.21052,4.4272 44.26407,-0.566 51.83718,-1.21114 53.97166,-4.59783 z m -41.18019,-64.57378 c 3.16156,-3.16155 3.83535,-10.57944 3.83535,-42.22372 0,-26.60339 -0.89912,-39.28751 -2.92881,-41.31719 -4.17856,-4.17857 -138.845167,-4.17857 -143.02373,0 -2.037658,2.03765 -2.928814,14.99677 -2.928814,42.59058 0,35.19829 0.480674,39.94174 4.271187,42.14951 2.60762,1.5188 30.107377,2.51665 70.605327,2.56196 57.11607,0.0639 66.86712,-0.45876 70.16949,-3.76114 z m 128.47038,1.30881 c 5.32058,-2.84749 6.18985,-9.6723 1.79209,-14.07006 -4.07408,-4.07409 -68.16998,-4.07409 -72.24407,0 -4.24819,4.24819 -3.59058,11.08725 1.34238,13.96043 5.6165,3.27132 63.03175,3.36239 69.1096,0.10964 z m 41.49152,0 c 7.29648,-3.90496 6.18251,-14.09836 -1.75855,-16.09144 -11.85511,-2.97544 -20.71123,8.76146 -11.62454,15.40582 5.29735,3.87352 7.24044,3.97306 13.38309,0.68562 z m -95.1771,-74.55939 c 4.92342,-5.93236 -0.21592,-11.99881 -10.16507,-11.99881 -8.46134,0 -11.59995,4.50949 -8.59282,12.34596 1.81432,4.72804 14.74446,4.48874 18.75789,-0.34715 z m 98.67767,-4.67678 v -7.32203 h -36.34416 c -31.26347,0 -36.70277,0.56849 -38.90931,4.0666 -1.8659,2.95804 -1.67631,5.13761 0.69549,7.99544 2.77496,3.34362 8.57064,3.82853 38.90932,3.25543 l 35.64866,-0.6734 z"
     id="path868"
     inkscape:connector-curvature="0"
     transform="matrix(0.74999999,0,0,0.74999999,-43,0)" />
  <path
     style="fill:#ffffff;fill-opacity:1;stroke-width:2.44067788"
     d="M 155.49379,33.437288 V 17.572881 H 256.78192 358.07006 V 33.437288 49.301695 H 256.78192 155.49379 Z"
     id="path870"
     inkscape:connector-curvature="0"
     transform="matrix(0.74999999,0,0,0.74999999,-43,0)" />
  <path
     style="fill:#ffffff;fill-opacity:1;stroke-width:2.44067788"
     d="m 87.154802,181.09831 v -26.84746 h 57.355928 57.35594 v 26.84746 26.84745 H 144.51073 87.154802 Z"
     id="path872"
     inkscape:connector-curvature="0"
     transform="matrix(0.74999999,0,0,0.74999999,-43,0)" />
  <path
     style="fill:#ffffff;fill-opacity:1;stroke-width:0.30508474"
     d="m 189.57811,394.69122 c -3.51385,-0.94426 -6.4499,-3.41748 -8.03894,-6.77172 -0.90569,-1.91179 -0.96846,-2.26226 -0.96846,-5.40745 0,-3.17449 0.0554,-3.47555 0.98653,-5.36628 1.83271,-3.72124 5.47145,-6.37992 9.48248,-6.92846 6.56603,-0.89796 12.32285,2.97883 13.96393,9.40367 2.32614,9.1069 -6.29048,17.52505 -15.42554,15.07024 z"
     id="path874"
     inkscape:connector-curvature="0"
     transform="matrix(0.74999999,0,0,0.74999999,-43,0)" />
  <path
     style="fill:#ffffff;fill-opacity:1;stroke-width:0.30508474"
     d="m 114.05825,351.91966 c -4.79441,-1.65787 -7.9904,-5.39997 -8.65099,-10.12919 -0.70254,-5.02964 1.46651,-9.77061 5.70375,-12.46685 3.45498,-2.19848 8.40328,-2.4963 12.00614,-0.72262 5.05417,2.48816 7.93075,7.90812 7.01901,13.22499 -0.84319,4.91713 -4.21291,8.76782 -8.88354,10.15153 -2.14467,0.63537 -5.2621,0.6103 -7.19437,-0.0579 z"
     id="path876"
     inkscape:connector-curvature="0"
     transform="matrix(0.74999999,0,0,0.74999999,-43,0)" />
  <path
     style="fill:#ffffff;fill-opacity:1;stroke-width:0.30508474"
     d="m 107.50291,447.19725 v -43.16949 h 10.22034 10.22034 v 43.16949 43.16949 h -10.22034 -10.22034 z"
     id="path878"
     inkscape:connector-curvature="0"
     transform="matrix(0.74999999,0,0,0.74999999,-43,0)" />
  <path
     style="fill:#ffffff;fill-opacity:1;stroke-width:0.30508474"
     d="m 257.60461,444.29894 v -46.06779 h 10.22034 10.22034 v 46.06779 46.0678 h -10.22034 -10.22034 z"
     id="path880"
     inkscape:connector-curvature="0"
     transform="matrix(0.74999999,0,0,0.74999999,-43,0)" />
  <path
     style="fill:#ffffff;fill-opacity:1;stroke-width:0.30508474"
     d="m 264.46901,346.8714 c -4.24461,-1.40568 -6.89945,-3.95312 -8.38613,-8.04687 -1.01309,-2.78967 -0.80485,-6.46976 0.52715,-9.31618 4.04425,-8.64237 15.67852,-9.75579 21.46533,-2.05426 4.63566,6.16947 2.2543,15.36906 -4.83798,18.68994 -1.75171,0.82022 -2.46345,0.97543 -4.80226,1.04722 -1.68701,0.0518 -3.21633,-0.0715 -3.96611,-0.31985 z"
     id="path882"
     inkscape:connector-curvature="0"
     transform="matrix(0.74999999,0,0,0.74999999,-43,0)" />
  <path
     style="fill:#ffffff;fill-opacity:1;stroke-width:0.30508474"
     d="m 182.55376,468.40064 v -21.9661 h 10.22034 10.22034 v 21.9661 21.9661 H 192.7741 182.55376 Z"
     id="path884"
     inkscape:connector-curvature="0"
     transform="matrix(0.74999999,0,0,0.74999999,-43,0)" />
  <path
     style="fill:#ffffff;fill-opacity:1;stroke-width:0.30508474"
     d="M 332.70847,402.50233 V 351.2481 h 10.22033 10.22034 v 51.25423 51.25424 H 342.9288 332.70847 Z"
     id="path886"
     inkscape:connector-curvature="0"
     transform="matrix(0.74999999,0,0,0.74999999,-43,0)" />
  <path
     style="fill:#ffffff;fill-opacity:1;stroke-width:0.30508474"
     d="m 340.18304,299.86846 c -3.67465,-0.912 -6.78699,-3.43694 -8.48294,-6.8819 -0.91781,-1.86434 -0.97469,-2.17645 -0.97469,-5.34863 0,-3.18063 0.0551,-3.48068 0.98654,-5.37269 2.43039,-4.93684 8.08935,-7.9313 13.26556,-7.01952 4.13911,0.72909 7.44456,3.20885 9.31086,6.98505 1.09811,2.22189 1.14891,2.46025 1.14891,5.39133 0,2.81426 -0.08,3.23551 -0.97169,5.11786 -2.66258,5.62058 -8.5396,8.55383 -14.28255,7.1285 z"
     id="path888"
     inkscape:connector-curvature="0"
     transform="matrix(0.74999999,0,0,0.74999999,-43,0)" />
</svg>
