<?xml version="1.0" encoding="UTF-8" standalone="no"?>
<svg
   xmlns:dc="http://purl.org/dc/elements/1.1/"
   xmlns:cc="http://creativecommons.org/ns#"
   xmlns:rdf="http://www.w3.org/1999/02/22-rdf-syntax-ns#"
   xmlns:svg="http://www.w3.org/2000/svg"
   xmlns="http://www.w3.org/2000/svg"
   xmlns:sodipodi="http://sodipodi.sourceforge.net/DTD/sodipodi-0.dtd"
   xmlns:inkscape="http://www.inkscape.org/namespaces/inkscape"
   height="432pt"
   viewBox="-43 0 345.60156 432"
   width="345.60156pt"
   version="1.1"
   id="svg36"
   sodipodi:docname="list_icon.svg"
   inkscape:version="0.92.4 (5da689c313, 2019-01-14)">
  <metadata
     id="metadata42">
    <rdf:RDF>
      <cc:Work
         rdf:about="">
        <dc:format>image/svg+xml</dc:format>
        <dc:type
           rdf:resource="http://purl.org/dc/dcmitype/StillImage" />
      </cc:Work>
    </rdf:RDF>
  </metadata>
  <defs
     id="defs40" />
  <sodipodi:namedview
     pagecolor="#ffffff"
     bordercolor="#666666"
     borderopacity="1"
     objecttolerance="10"
     gridtolerance="10"
     guidetolerance="10"
     inkscape:pageopacity="0"
     inkscape:pageshadow="2"
     inkscape:window-width="1366"
     inkscape:window-height="705"
     id="namedview38"
     showgrid="false"
     inkscape:zoom="0.57943472"
     inkscape:cx="286.87133"
     inkscape:cy="324.20217"
     inkscape:window-x="-8"
     inkscape:window-y="-8"
     inkscape:window-maximized="1"
     inkscape:current-layer="svg36" />
  <g
     id="g866"
     transform="translate(-43)">
    <path
       id="path2"
       d="m 311.65234,43.007812 v -11.1875 h -30 v 11.1875 c 0,3.3125 -2.6875,6 -6,6 h 30 c 3.3125,0 6,-2.6875 6,-6 z m 0,0"
       inkscape:connector-curvature="0"
       style="fill:#d4e1f4" />
    <path
       id="path4"
       d="M 42,404.47656 V 47.34375 c 0.01172,-8.566406 6.953125,-15.511719 15.523438,-15.523438 h -30 C 18.953125,31.832031 12.011719,38.777344 12,47.34375 v 357.13281 c 0.01172,8.57031 6.957031,15.51563 15.523438,15.52344 h 30 C 48.957031,419.99219 42.011719,413.04687 42,404.47656 Z m 0,0"
       inkscape:connector-curvature="0"
       style="fill:#d4e1f4" />
    <path
       id="path6"
       d="m 74.710938,6 v 13.820312 h -47.1875 C 12.332031,19.835938 0.015625,32.148438 0,47.34375 V 404.47656 C 0.015625,419.67187 12.332031,431.98437 27.523438,432 H 318.07422 c 15.19531,-0.0156 27.50781,-12.32813 27.52734,-27.52344 V 47.34375 C 345.58203,32.152344 333.26953,19.839844 318.07812,19.820312 H 281.65234 V 6 c 0,-3.3125 -2.6875,-6 -6,-6 H 80.710938 c -3.316407,0 -6,2.6875 -6,6 z M 318.07422,31.820312 c 8.57031,0.01172 15.51562,6.953126 15.52734,15.523438 v 357.13281 c -0.0117,8.57031 -6.95703,15.51563 -15.52734,15.52344 H 27.523438 C 18.957031,419.99219 12.011719,413.04687 12,404.47656 V 47.34375 c 0.01172,-8.566406 6.953125,-15.511719 15.523438,-15.523438 h 47.183593 v 11.1875 c 0,3.3125 2.683594,6 6,6 H 275.65234 c 3.3125,0 6,-2.6875 6,-6 v -11.1875 z M 86.710938,12 H 269.65234 V 37.007812 H 86.710938 Z m 0,0"
       inkscape:connector-curvature="0"
       style="fill:#0635c9" />
    <g
       id="g34"
       style="fill:#1ae5be">
      <path
         id="path8"
         d="m 286.41406,212.07812 h -47.21484 c -3.3125,0 -6,2.6836 -6,6 0,3.3125 2.6875,6 6,6 h 47.21094 c 3.3164,0 6,-2.6875 6,-6 0,-3.3164 -2.6836,-6 -6,-6 z m 0,0"
         inkscape:connector-curvature="0" />
      <path
         id="path10"
         d="m 95.046875,218.07812 c 0,3.3125 2.6875,6 6.000005,6 h 110.33984 c 3.3125,0 6,-2.6875 6,-6 0,-3.3164 -2.6875,-6 -6,-6 H 101.04688 c -3.312505,0 -6.000005,2.6836 -6.000005,6 z m 0,0"
         inkscape:connector-curvature="0" />
      <path
         id="path12"
         d="m 59.1875,224.07812 h 17.414062 c 3.3125,0 6,-2.6875 6,-6 0,-3.3164 -2.6875,-6 -6,-6 H 59.1875 c -3.3125,0 -6,2.6836 -6,6 0,3.3125 2.6875,6 6,6 z m 0,0"
         inkscape:connector-curvature="0" />
      <path
         id="path14"
         d="M 286.41406,281.92187 H 155.11328 c -3.3125,0 -6,2.6836 -6,6 0,3.3125 2.6875,6 6,6 h 131.30078 c 3.3125,0 6,-2.6875 6,-6 0,-3.3164 -2.6875,-6 -6,-6 z m 0,0"
         inkscape:connector-curvature="0" />
      <path
         id="path16"
         d="m 59.1875,293.92187 h 68.11328 c 3.3125,0 6,-2.6875 6,-6 0,-3.3164 -2.6875,-6 -6,-6 H 59.1875 c -3.3125,0 -6,2.6836 -6,6 0,3.3125 2.6875,6 6,6 z m 0,0"
         inkscape:connector-curvature="0" />
      <path
         id="path18"
         d="m 286.41406,346.47656 h -5.45312 c -3.31641,0 -6,2.6875 -6,6 0,3.3125 2.68359,6 6,6 h 5.45312 c 3.3125,0 6,-2.6875 6,-6 0,-3.3125 -2.6875,-6 -6,-6 z m 0,0"
         inkscape:connector-curvature="0" />
      <path
         id="path20"
         d="m 241.86328,346.47656 c -3.3125,0 -6,2.6875 -6,6 0,3.3125 2.6875,6 6,6 h 11.28125 c 3.3125,0 6,-2.6875 6,-6 0,-3.3125 -2.6875,-6 -6,-6 z m 0,0"
         inkscape:connector-curvature="0" />
      <path
         id="path22"
         d="m 219.38672,352.47656 c 0,-3.3125 -2.6875,-6 -6,-6 H 59.183594 c -3.3125,0 -6,2.6875 -6,6 0,3.3125 2.6875,6 6,6 H 213.38672 c 3.3125,0 6,-2.6875 6,-6 z m 0,0"
         inkscape:connector-curvature="0" />
      <path
         id="path24"
         d="m 59.1875,169.08984 h 98.09375 c 3.3125,0 6,-2.6875 6,-6 v -53.80468 c 0,-3.3125 -2.6875,-6 -6,-6 H 59.1875 c -3.3125,0 -6,2.6875 -6,6 v 53.80468 c 0,3.3125 2.6875,6 6,6 z m 6,-53.80468 h 86.09375 v 41.80468 H 65.1875 Z m 0,0"
         inkscape:connector-curvature="0" />
      <path
         id="path26"
         d="m 286.41406,157.08984 h -4.16797 c -3.3125,0 -6,2.6875 -6,6 0,3.3125 2.6875,6 6,6 h 4.16797 c 3.3125,0 6,-2.6875 6,-6 0,-3.3125 -2.6875,-6 -6,-6 z m 0,0"
         inkscape:connector-curvature="0" />
      <path
         id="path28"
         d="m 208.66016,169.08984 h 45.76953 c 3.3125,0 6,-2.6875 6,-6 0,-3.3125 -2.6875,-6 -6,-6 h -45.76953 c -3.31641,0 -6,2.6875 -6,6 0,3.3125 2.68359,6 6,6 z m 0,0"
         inkscape:connector-curvature="0" />
      <path
         id="path30"
         d="m 286.41406,103.28516 h -46.13672 c -3.3125,0 -6,2.6875 -6,6 0,3.3125 2.6875,6 6,6 h 46.13672 c 3.3125,0 6,-2.6875 6,-6 0,-3.3125 -2.6875,-6 -6,-6 z m 0,0"
         inkscape:connector-curvature="0" />
      <path
         id="path32"
         d="m 208.66016,115.28516 h 3.80078 c 3.3125,0 6,-2.6875 6,-6 0,-3.3125 -2.6875,-6 -6,-6 h -3.80078 c -3.31641,0 -6,2.6875 -6,6 0,3.3125 2.68359,6 6,6 z m 0,0"
         inkscape:connector-curvature="0" />
    </g>
  </g>
  <path
     style="fill:#ffffff;fill-opacity:1;stroke-width:1.72581995"
     d="m 65.889861,556.32392 c -10.533467,-6.56093 -9.933237,8.84056 -9.933237,-254.87986 0,-204.361843 0.372694,-241.869925 2.452774,-246.848256 C 61.938613,46.149203 68.665267,43.31878 85.209859,43.31878 h 13.892264 v 9.146846 c 0,5.030765 0.931947,10.078788 2.070987,11.217829 1.5798,1.579802 38.57305,2.070984 155.97539,2.070984 173.01459,0 157.65931,1.337877 159.12,-13.86382 0.81412,-8.472692 0.89288,-8.571839 6.80962,-8.571839 3.29227,0 8.22895,1.32496 10.97036,2.944357 10.92477,6.453417 10.29743,-10.022775 9.80387,257.488103 l -0.44915,243.44093 -5.64181,5.64193 -5.64179,5.64193 -180.74676,0.39896 C 83.453502,559.24564 70.289968,559.06461 65.889861,556.32392 Z m 224.433109,-80.1695 c 3.2816,-3.28159 2.51618,-11.37588 -1.2672,-13.40068 -2.19569,-1.17509 -39.112,-1.78653 -107.86374,-1.78653 -102.224474,0 -104.601553,0.076 -107.977207,3.45164 -4.198444,4.19843 -4.328538,6.52544 -0.595428,10.65048 2.708207,2.99254 8.369029,3.15608 109.244405,3.15608 80.44528,0 106.8932,-0.50501 108.45917,-2.07099 z m 53.50042,0 c 2.90412,-2.90412 2.57772,-9.25647 -0.64102,-12.47521 -4.21511,-4.21511 -22.17097,-3.71633 -26.62693,0.73964 -4.15493,4.15492 -4.22245,5.0348 -0.76506,9.9709 2.32461,3.31884 4.25465,3.83566 14.3243,3.83566 6.75048,0 12.50744,-0.86971 13.70871,-2.07099 z m 44.2303,-0.64102 c 8.67426,-8.67426 -6.18467,-19.14259 -18.11129,-12.75966 -3.78338,2.0248 -4.5488,10.11909 -1.2672,13.40068 3.02229,3.02229 16.14941,2.58806 19.37849,-0.64102 z M 177.55125,386.14485 c 1.49048,-4.23975 1.16875,-5.38269 -2.30756,-8.19764 -3.74541,-3.03286 -7.48106,-3.271 -51.30837,-3.271 -44.967764,0 -47.436886,0.16802 -50.720497,3.45164 -3.91968,3.91968 -4.203757,5.72485 -1.651416,10.49395 1.731161,3.2347 3.765467,3.34621 53.028053,2.90671 l 51.22784,-0.45701 z m 212.27542,0 c 1.49092,-4.23998 1.16937,-5.38254 -2.30712,-8.19764 -3.84917,-3.11687 -8.2594,-3.271 -93.59096,-3.271 -87.25036,0 -89.64014,0.0887 -93.00309,3.45164 -4.15691,4.15691 -4.22317,5.03375 -0.75459,9.98585 l 2.69706,3.85058 92.61315,-0.44638 92.61316,-0.4464 z m -280.43035,-90.7429 c 2.53802,-4.74233 2.24997,-6.5533 -1.6651,-10.46838 -2.87636,-2.87637 -5.75273,-3.45164 -17.258197,-3.45164 -11.505467,0 -14.381832,0.57527 -17.2582,3.45164 -3.915067,3.91508 -4.20312,5.72605 -1.665098,10.46838 1.582159,2.95629 3.746988,3.33818 18.923298,3.33818 15.176307,0 17.341137,-0.38189 18.923297,-3.33818 z m 180.33287,-2.45138 c 1.49085,-4.23994 1.16926,-5.38257 -2.3072,-8.19764 -3.8278,-3.09956 -8.00297,-3.271 -79.66113,-3.271 -81.92636,0 -81.04562,-0.10073 -81.04562,9.27012 0,8.09474 -0.49831,8.04911 82.72897,7.5738 l 78.55267,-0.44863 z m 100.09843,0 c 1.48994,-4.23947 1.168,-5.38286 -2.30807,-8.19764 -3.65476,-2.95942 -7.22691,-3.271 -37.50181,-3.271 -31.16122,0 -33.69966,0.23735 -36.91394,3.45164 -4.16594,4.16594 -4.37482,7.45939 -0.70578,11.12842 2.36855,2.36856 7.7581,2.68194 39.22202,2.28055 l 36.47615,-0.46532 z M 215.4717,223.54369 c 2.30735,-2.30735 2.712,-8.60152 2.712,-42.18473 0,-38.83357 -0.0621,-39.51622 -3.83565,-42.15931 -3.31147,-2.31945 -12.98128,-2.68659 -70.75861,-2.68659 -64.621884,0 -67.041658,0.11868 -70.374617,3.45164 -3.240311,3.24031 -3.451639,5.75273 -3.451639,41.03567 0,31.2233 0.454679,38.23319 2.68659,41.41967 l 2.686591,3.83565 h 68.811665 c 60.25496,0 69.1489,-0.33724 71.52367,-2.712 z m 129.43649,0 c 3.21874,-3.21874 3.54514,-9.57109 0.64102,-12.47521 -2.92718,-2.92718 -70.59275,-2.92718 -73.51993,0 -3.1042,3.10419 -2.52011,11.30246 0.9492,13.32316 1.75701,1.02336 16.86366,1.78104 36.11895,1.81157 27.83678,0.0442 33.52992,-0.37866 35.81076,-2.65952 z m 42.70143,-0.14428 c 6.81003,-6.16292 1.8314,-14.40192 -8.70278,-14.40192 -3.53915,0 -7.36678,0.93195 -8.50582,2.07099 -3.1042,3.10419 -2.52011,11.30246 0.9492,13.32316 4.61591,2.68853 12.74007,2.19279 16.2594,-0.99216 z m -97.0022,-72.96634 c 2.53801,-4.74233 2.24997,-6.55331 -1.6651,-10.46837 -6.53184,-6.53183 -18.98402,-2.62072 -18.98402,5.96268 0,5.56612 3.3401,7.84388 11.50228,7.84388 5.51061,0 7.80926,-0.83891 9.14684,-3.33819 z m 99.2202,-2.45137 c 1.48994,-4.23948 1.168,-5.38288 -2.30807,-8.19764 -3.64652,-2.95278 -7.21103,-3.271 -36.6389,-3.271 -30.29831,0 -32.84303,0.24364 -36.05103,3.45164 -3.92122,3.92121 -4.20398,5.72445 -1.64685,10.50247 1.71596,3.20632 3.6037,3.34936 38.35911,2.90672 l 36.55431,-0.46554 z"
     id="path868"
     inkscape:connector-curvature="0"
     transform="matrix(0.74999999,0,0,0.74999999,-43,0)" />
  <path
     style="fill:#ffffff;fill-opacity:1;stroke-width:1.72581995"
     d="m 65.24265,556.04333 c -2.960895,-1.80548 -6.261525,-5.80156 -7.334735,-8.88017 -1.415069,-4.05928 -1.951291,-71.70147 -1.951291,-246.14726 0,-203.991806 0.372765,-241.441934 2.452774,-246.420096 C 61.938613,46.149203 68.665267,43.31878 85.209859,43.31878 h 13.892264 v 8.505827 c 0,15.389453 -14.376224,14.152963 157.849757,13.576547 164.84267,-0.551705 157.94868,-0.124915 157.99885,-9.781497 0.0506,-9.736247 1.72471,-12.300877 8.02962,-12.300877 8.50803,0 15.99409,4.482587 18.83299,11.277024 2.08008,4.978331 2.45277,42.486413 2.45277,246.848256 0,264.50522 0.63997,248.53678 -10.21763,254.95053 -4.61217,2.72447 -18.36823,2.94387 -184.20339,2.9379 -173.101141,-0.007 -179.402767,-0.11857 -184.60244,-3.28916 z m 223.81312,-79.60446 c 3.55193,-1.90094 4.35321,-7.74201 1.64888,-12.02002 -1.42594,-2.25575 -15.42572,-2.58873 -108.83934,-2.58873 -104.127314,0 -107.273186,0.0961 -109.652517,3.35004 -3.217112,4.39966 -3.103421,5.48816 1.00203,9.59361 3.375654,3.37565 5.752733,3.45164 107.977207,3.45164 68.75174,0 105.66805,-0.61145 107.86374,-1.78654 z m 53.50042,0 c 4.52845,-2.42355 4.2548,-9.45646 -0.49747,-12.78508 -2.10959,-1.47761 -7.10706,-2.68658 -11.10548,-2.68658 -14.17588,0 -20.38486,5.36541 -15.26008,13.18681 2.31586,3.53447 4.04294,4.07139 13.09625,4.07139 5.73573,0 11.93078,-0.80394 13.76678,-1.78654 z m 45.05343,-1.06968 c 4.07008,-3.68338 3.98961,-6.66517 -0.29557,-10.95034 -4.18654,-4.18655 -14.1418,-4.59567 -17.99783,-0.73964 -3.21874,3.21874 -3.54515,9.57109 -0.64102,12.47521 3.05718,3.05719 15.2472,2.55166 18.93442,-0.78523 z M 177.49728,386.29836 c 1.32889,-3.7802 1.05595,-5.39576 -1.3121,-7.76619 -2.65278,-2.65545 -7.99619,-3.05278 -47.37129,-3.52264 -24.40968,-0.29126 -46.940987,-0.0552 -50.06957,0.52457 -7.680146,1.42325 -10.898643,7.96933 -6.375578,12.96726 3.044293,3.36391 4.88541,3.46848 53.301898,3.0272 l 50.1487,-0.45706 z m 210.55641,2.92404 c 3.35627,-3.35627 3.4239,-6.0092 0.26344,-10.33324 -2.35719,-3.22504 -5.62531,-3.36975 -87.58536,-3.87838 -46.82524,-0.2906 -88.43541,-0.0492 -92.46705,0.53652 -9.22522,1.34017 -12.36575,5.96027 -8.285,12.18829 l 2.75117,4.19882 h 91.30539 c 80.70383,0 91.6203,-0.3149 94.01741,-2.71201 z M 108.47086,296.02813 c 3.35656,-3.35655 3.42393,-6.0096 0.26239,-10.33325 -2.11624,-2.89413 -4.60129,-3.35004 -18.260227,-3.35004 -13.65894,0 -16.143991,0.45591 -18.26023,3.35004 -3.161533,4.32365 -3.094164,6.9767 0.262394,10.33325 2.057198,2.05719 6.402716,2.712 17.997836,2.712 11.595117,0 15.940637,-0.65481 17.997837,-2.712 z m 180.68601,-1.38425 c 2.63616,-5.78574 -0.58759,-11.03073 -7.57026,-12.31669 -3.07337,-0.566 -37.89339,-0.79357 -77.37782,-0.50572 -77.13962,0.56238 -77.49355,0.6054 -77.49355,9.4194 0,2.69988 1.36224,4.7064 3.8831,5.71966 2.1357,0.85844 38.26513,1.61004 80.28762,1.6702 l 76.40454,0.1094 z m 99.9179,0.57943 c 2.57449,-4.81052 0.5404,-10.15644 -4.60948,-12.11441 -5.51893,-2.09831 -62.92023,-2.12628 -68.42505,-0.0333 -5.58934,2.12505 -7.06055,6.61501 -3.79872,11.59319 2.66246,4.06343 2.73828,4.07139 38.80938,4.07139 34.59872,0 36.22206,-0.15015 38.02387,-3.51683 z m -174.72672,-71.6542 c 3.76825,-2.63938 3.83565,-3.36143 3.83565,-41.08983 0,-30.44285 -0.50777,-39.09764 -2.44961,-41.75327 -2.35422,-3.21959 -5.13986,-3.35004 -71.53524,-3.35004 -54.384547,0 -69.563045,0.47742 -71.32919,2.24356 -3.340374,3.34038 -3.226359,79.74402 0.125027,83.78219 2.129456,2.56583 9.191006,2.85397 69.943153,2.85397 58.36708,0 68.0972,-0.36606 71.41021,-2.68658 z m 130.11607,-0.16965 c 3.87339,-3.50536 4.04743,-8.08662 0.44407,-11.68998 -2.27508,-2.27507 -7.99317,-2.71199 -35.49277,-2.71199 -19.29625,0 -34.15394,0.73491 -36.11894,1.78655 -5.28976,2.83098 -4.10985,11.9491 1.83928,14.21372 1.4238,0.54199 16.89503,1.04675 34.3805,1.12168 27.2871,0.11701 32.23898,-0.26845 34.94786,-2.71996 z m 42.84993,-0.59541 c 4.19844,-4.19843 4.32855,-6.52544 0.59543,-10.65048 -5.59587,-6.18337 -19.57945,-2.93552 -19.57945,4.54757 0,9.0371 12.14537,12.94156 18.98402,6.10291 z m -97.50247,-72.49144 c 6.92041,-7.64699 -4.88658,-17.25887 -14.55624,-11.84997 -4.9472,2.7673 -6.64891,9.01151 -3.49239,12.81488 3.12222,3.76203 14.31219,3.16379 18.04863,-0.96491 z m 98.24211,0.74664 c 3.35656,-3.35655 3.42392,-6.00959 0.26239,-10.33324 -2.2846,-3.1244 -4.7932,-3.35004 -37.24425,-3.35004 -32.45104,0 -34.95964,0.22564 -37.24424,3.35004 -3.16153,4.32365 -3.09417,6.97669 0.26239,10.33324 4.04092,4.04093 69.92279,4.04093 73.96371,0 z"
     id="path870"
     inkscape:connector-curvature="0"
     transform="matrix(0.74999999,0,0,0.74999999,-43,0)" />
  <path
     style="fill:#ffffff;fill-opacity:1;stroke-width:1.72581995"
     d="M 116.36032,32.96386 V 17.431481 h 120.8074 120.80739 V 32.96386 48.49624 H 237.16772 116.36032 Z"
     id="path872"
     inkscape:connector-curvature="0"
     transform="matrix(0.74999999,0,0,0.74999999,-43,0)" />
  <path
     style="fill:#ffffff;fill-opacity:1;stroke-width:1.72581995"
     d="m 87.021383,181.38438 v -27.61312 h 56.952057 56.95206 v 27.61312 27.61311 H 143.97344 87.021383 Z"
     id="path874"
     inkscape:connector-curvature="0"
     transform="matrix(0.74999999,0,0,0.74999999,-43,0)" />
</svg>
