<?xml version="1.0" encoding="UTF-8" standalone="no"?>
<svg
   xmlns:dc="http://purl.org/dc/elements/1.1/"
   xmlns:cc="http://creativecommons.org/ns#"
   xmlns:rdf="http://www.w3.org/1999/02/22-rdf-syntax-ns#"
   xmlns:svg="http://www.w3.org/2000/svg"
   xmlns="http://www.w3.org/2000/svg"
   xmlns:sodipodi="http://sodipodi.sourceforge.net/DTD/sodipodi-0.dtd"
   xmlns:inkscape="http://www.inkscape.org/namespaces/inkscape"
   height="482.0014pt"
   viewBox="-15 0 451.42538 482.60548"
   width="451.42538pt"
   version="1.1"
   id="svg32"
   sodipodi:docname="record_icon.svg"
   inkscape:version="0.92.4 (5da689c313, 2019-01-14)">
  <metadata
     id="metadata38">
    <rdf:RDF>
      <cc:Work
         rdf:about="">
        <dc:format>image/svg+xml</dc:format>
        <dc:type
           rdf:resource="http://purl.org/dc/dcmitype/StillImage" />
      </cc:Work>
    </rdf:RDF>
  </metadata>
  <defs
     id="defs36" />
  <sodipodi:namedview
     pagecolor="#ffffff"
     bordercolor="#666666"
     borderopacity="1"
     objecttolerance="10"
     gridtolerance="10"
     guidetolerance="10"
     inkscape:pageopacity="0"
     inkscape:pageshadow="2"
     inkscape:window-width="1366"
     inkscape:window-height="705"
     id="namedview34"
     showgrid="false"
     inkscape:zoom="1.4688797"
     inkscape:cx="408.67112"
     inkscape:cy="341.89661"
     inkscape:window-x="-8"
     inkscape:window-y="-8"
     inkscape:window-maximized="1"
     inkscape:current-layer="svg32" />
  <g
     id="g860"
     transform="translate(-15.602816)">
    <path
       id="path2"
       d="m 186.30078,57.304688 v -18 c 0.0156,-12.707032 8.02734,-24.03125 20,-28.28125 -9.17969,-3.25 -19.36719,-1.839844 -27.32031,3.78125 -7.95313,5.625 -12.6836,14.757812 -12.67969,24.5 v 18 c 0,3.3125 -2.68359,6 -6,6 h 20 c 3.31641,0 6,-2.6875 6,-6 z m 0,0"
       inkscape:connector-curvature="0"
       style="fill:#d4e1f4" />
    <path
       id="path4"
       d="m 100.30078,63.304688 h 20 v 36 h -20 z m 0,0"
       inkscape:connector-curvature="0"
       style="fill:#d4e1f4" />
    <path
       id="path6"
       d="M 76.6875,413.22266 V 92.386719 c 0,-2.210938 1.789062,-4 4,-4 h -20 c -2.210938,0 -4,1.789062 -4,4 V 413.22266 c 0,2.21093 1.789062,4 4,4 h 20 c -2.210938,0 -4,-1.78907 -4,-4 z m 0,0"
       inkscape:connector-curvature="0"
       style="fill:#d4e1f4" />
    <path
       id="path8"
       d="m 279.73047,434.22266 h 3.87109 c -0.48437,0 -0.96875,-0.0625 -1.4414,-0.17969 -0.80469,0.11328 -1.61719,0.17578 -2.42969,0.17969 z m 0,0"
       inkscape:connector-curvature="0"
       style="fill:#d4e1f4" />
    <path
       id="path10"
       d="M 30.300781,456.30469 V 47.304688 c 0.0078,-7.730469 6.273438,-13.992188 14,-14 h -20 c -7.726562,0.0078 -13.992187,6.269531 -14,14 V 456.30469 c 0.0078,7.72656 6.273438,13.99218 14,14 h 20 c -7.726562,-0.008 -13.992187,-6.27344 -14,-14 z m 0,0"
       inkscape:connector-curvature="0"
       style="fill:#d4e1f4" />
    <g
       id="g28"
       style="fill:#0635c9">
      <path
         id="path12"
         d="m 382.78906,154.52344 c 3.3125,0 6,-2.6836 6,-6 V 49.140625 C 388.77344,35.003906 377.31641,23.546875 363.17969,23.53125 H 231.81641 C 224.96875,9.15625 210.46875,0 194.54687,0 178.62109,0 164.12109,9.15625 157.27344,23.53125 H 25.910156 C 11.773438,23.546875 0.316406,35.003906 0.300781,49.140625 V 457.00391 c 0.023438,14.13281 11.476563,25.58203 25.609375,25.60156 H 363.17969 c 14.13281,-0.0156 25.58594,-11.46875 25.60937,-25.60156 V 208.16016 c 0,-3.3125 -2.6875,-6 -6,-6 -3.3164,0 -6,2.6875 -6,6 v 248.84375 c -0.0156,7.50781 -6.10156,13.59375 -13.60937,13.60156 H 25.910156 c -7.507812,-0.0117 -13.59375,-6.09375 -13.609375,-13.60156 V 49.140625 c 0.0078,-7.511719 6.097657,-13.601563 13.609375,-13.609375 H 153.66016 c -0.26953,1.910156 -0.40625,3.835938 -0.41016,5.765625 V 52.945312 H 94.542969 c -3.316407,0 -6,2.683594 -6,6 V 77.53125 H 61.582031 C 52.859375,77.546875 45.792969,84.613281 45.78125,93.339844 V 412.80469 c 0.01172,8.71875 7.078125,15.78906 15.800781,15.80078 H 276.33984 c 0.79688,-0.008 1.58985,-0.0664 2.375,-0.17578 0.46485,0.11328 0.94141,0.17187 1.42188,0.17578 1.73437,0 3.38281,-0.75391 4.51562,-2.05859 1.56641,-0.83204 2.9961,-1.89063 4.25,-3.14454 l 49.20703,-49.19921 c 3.33985,-3.32422 5.21094,-7.84766 5.19922,-12.5625 V 238.04297 c 0,-3.31641 -2.6875,-6 -6,-6 -3.3125,0 -6,2.68359 -6,6 v 122.22266 h -31.5625 c -14.13672,0.0156 -25.59375,11.46875 -25.60937,25.60546 v 30.73438 H 61.582031 c -2.097656,-0.004 -3.796875,-1.70703 -3.800781,-3.80469 V 93.339844 c 0.0039,-2.101563 1.703125,-3.800782 3.800781,-3.808594 h 26.960938 v 16.47266 c 0,3.3125 2.683593,6 6,6 H 294.55078 c 3.3125,0 6,-2.6875 6,-6 V 89.53125 h 26.95703 c 2.09766,0.0039 3.80078,1.707031 3.80469,3.808594 v 85.062496 c 0,3.31641 2.6875,6 6,6 3.3125,0 6,-2.68359 6,-6 V 93.339844 C 343.30078,84.613281 336.23047,77.542969 327.50781,77.53125 H 300.55078 V 58.945312 c 0,-3.316406 -2.6875,-6 -6,-6 H 235.83984 V 41.296875 c -0.004,-1.929687 -0.14062,-3.855469 -0.41015,-5.765625 h 127.75 c 7.51172,0.0078 13.59765,6.09375 13.60937,13.609375 v 99.382815 c 0,3.3164 2.6836,6 6,6 z m -96.65234,231.34765 c 0.008,-7.51172 6.09765,-13.59765 13.60937,-13.60547 h 23.32422 l -36.93359,36.9336 z M 288.55078,64.945312 V 100.00391 H 100.54297 V 64.945312 H 159.25 c 3.3125,0 6,-2.6875 6,-6 V 41.296875 c -0.1875,-10.589844 5.35547,-20.453125 14.49609,-25.804687 9.14063,-5.347657 20.45703,-5.347657 29.59766,0 9.14062,5.351562 14.68359,15.214843 14.49609,25.804687 v 17.648437 c 0,3.3125 2.6875,6 6,6 z m 0,0"
         inkscape:connector-curvature="0" />
      <path
         id="path14"
         d="m 294.55078,161.94922 h -25.60937 c -3.31641,0 -6,2.68359 -6,6 0,3.3125 2.68359,6 6,6 h 25.60937 c 3.3125,0 6,-2.6875 6,-6 0,-3.31641 -2.6875,-6 -6,-6 z m 0,0"
         inkscape:connector-curvature="0" />
      <path
         id="path16"
         d="m 251.98047,167.94922 c 0,-3.31641 -2.6836,-6 -6,-6 h -89.82031 c -3.3125,0 -6,2.68359 -6,6 0,3.3125 2.6875,6 6,6 h 89.82031 c 3.3164,0 6,-2.6875 6,-6 z m 0,0"
         inkscape:connector-curvature="0" />
      <path
         id="path18"
         d="m 94.542969,173.94922 h 38.199221 c 3.3125,0 6,-2.6875 6,-6 0,-3.31641 -2.6875,-6 -6,-6 H 94.542969 c -3.316407,0 -6,2.68359 -6,6 0,3.3125 2.683593,6 6,6 z m 0,0"
         inkscape:connector-curvature="0" />
      <path
         id="path20"
         d="m 237.72266,220.8125 c 0,-3.3125 -2.6875,-6 -6,-6 H 125.33594 c -3.31641,0 -6,2.6875 -6,6 0,3.3125 2.68359,6 6,6 h 106.38672 c 3.3125,0 6,-2.6875 6,-6 z m 0,0"
         inkscape:connector-curvature="0" />
      <path
         id="path22"
         d="m 94.542969,226.8125 h 11.136721 c 3.3125,0 6,-2.6875 6,-6 0,-3.3125 -2.6875,-6 -6,-6 H 94.542969 c -3.316407,0 -6,2.6875 -6,6 0,3.3125 2.683593,6 6,6 z m 0,0"
         inkscape:connector-curvature="0" />
      <path
         id="path24"
         d="m 171.80078,276.97266 c 0,-3.3125 -2.68359,-6 -6,-6 H 94.542969 c -3.316407,0 -6,2.6875 -6,6 0,3.3125 2.683593,6 6,6 h 71.257811 c 3.31641,0 6,-2.6875 6,-6 z m 0,0"
         inkscape:connector-curvature="0" />
      <path
         id="path26"
         d="m 94.542969,322.875 c -3.316407,0 -6,2.6875 -6,6 0,3.31641 2.683593,6 6,6 h 28.804691 c 3.3125,0 6,-2.68359 6,-6 0,-3.3125 -2.6875,-6 -6,-6 z m 0,0"
         inkscape:connector-curvature="0" />
    </g>
    <path
       id="path30"
       d="m 448.09375,141.78906 -5.83203,-8.8789 c -7.77735,-11.80469 -23.64453,-15.08985 -35.46485,-7.33985 l -6.51562,4.28125 h -0.0156 l -11.47656,7.55078 -12,7.88672 -189.64453,124.60547 c -0.0937,0.0625 -0.17969,0.12891 -0.26953,0.19922 -0.0547,0.0391 -0.10938,0.0781 -0.16406,0.12109 -0.1836,0.14454 -0.35938,0.30079 -0.52735,0.46485 l -0.008,0.008 c -0.16016,0.16406 -0.3125,0.33984 -0.45312,0.52344 -0.0352,0.043 -0.0664,0.0859 -0.10157,0.1289 -0.11328,0.15235 -0.21875,0.3125 -0.3164,0.47657 -0.0195,0.0273 -0.0391,0.0508 -0.0586,0.082 l -27.25781,46.97265 -8.10156,5.32032 c -2.76953,1.82031 -3.53906,5.53906 -1.71875,8.30859 1.82031,2.76953 5.53906,3.53906 8.30859,1.71875 l 8.10156,-5.32031 53.92969,-6.375 c 0.0312,0 0.0625,-0.0117 0.0937,-0.0156 0.0977,-0.0156 0.19141,-0.0351 0.28906,-0.0547 0.17579,-0.0312 0.34766,-0.0664 0.51563,-0.11329 0.10156,-0.0273 0.20312,-0.0625 0.30078,-0.10156 0.16406,-0.0547 0.32422,-0.11328 0.48047,-0.17969 0.0977,-0.043 0.19922,-0.0898 0.29297,-0.13671 0.15234,-0.0781 0.30078,-0.16016 0.44531,-0.25 0.0586,-0.0352 0.11719,-0.0586 0.17578,-0.10157 L 440.7537,177.25408 c 11.80468,-7.77735 15.08984,-23.64063 7.33984,-35.46485 z m -61.95703,11.71485 0.0117,-0.008 15.69922,-10.3164 7.09765,10.80078 -203.09765,133.44922 -7.09375,-10.80078 z m -212.45313,162.23437 17.07422,-29.42187 8.35156,12.71484 8.35157,12.71094 z m 45.84375,-7.48437 -7.09375,-10.80079 203.09766,-133.44921 7.09766,10.80078 z m 214.63672,-141.02735 -1.50781,0.98828 -20.77734,-31.625 1.50781,-0.98828 c 6.28125,-4.1289 14.71875,-2.38281 18.84375,3.89844 l 5.83203,8.87891 c 4.12109,6.28125 2.375,14.71484 -3.89844,18.84765 z m 0,0"
       inkscape:connector-curvature="0"
       style="fill:#1ae5be" />
  </g>
  <path
     style="fill:#ffffff;fill-opacity:1;stroke-width:2.72316384"
     d="m 43.915682,618.09688 c -3.769071,-5.38108 -4.23916,-36.65558 -4.23916,-282.02648 0,-185.02838 0.928978,-277.710035 2.818975,-281.241527 2.687431,-5.02151 6.499623,-5.267303 81.694913,-5.267303 h 78.87594 v 9.531074 9.531073 h -40.30282 c -27.71576,0 -41.3234,1.020573 -43.57062,3.267797 -1.79729,1.797288 -3.2678,9.020077 -3.2678,16.050641 V 100.725 l -22.04875,1.00128 c -20.160486,0.91554 -22.609221,1.65288 -28.593221,8.60969 l -6.54447,7.6084 V 337.21669 556.489 l 7.960017,7.96 7.960018,7.96003 H 226.27897 377.89922 l 36.32447,-35.71141 c 19.97846,-19.64125 38.23597,-39.73959 40.57225,-44.66294 3.55292,-7.4872 4.24904,-22.24873 4.25538,-90.23494 l 0.008,-81.28337 19.73537,-12.58508 19.73537,-12.58509 0.70274,159.39726 c 0.64111,145.41921 0.30559,159.83607 -3.82602,164.40146 -4.32523,4.77866 -14.50668,5.00422 -225.89073,5.00422 H 48.154842 Z"
     id="path862"
     inkscape:connector-curvature="0"
     transform="matrix(0.75093997,0,0,0.75093997,-15.282888,0)" />
  <path
     style="fill:#ffffff;fill-opacity:1;stroke-width:2.72316384"
     d="M 102.30929,336.85536 V 120.36383 h 6.80791 c 6.20628,0 6.80791,1.0348 6.80791,11.7096 0,6.44029 1.47051,13.18012 3.2678,14.97741 4.70991,4.70991 274.68668,4.70991 279.39661,0 1.79728,-1.79729 3.26779,-8.59311 3.26779,-15.10183 v -11.83402 l 18.38136,0.80521 18.38135,0.80521 0.7373,55.18396 0.7373,55.18396 -97.40961,64.63525 -97.40962,64.63525 -17.93964,31.02806 c -9.8668,17.06544 -21.20197,33.40453 -25.18927,36.30906 -14.25911,10.38704 -5.62848,23.66189 9.67391,14.87953 4.57151,-2.62369 22.8182,-6.31859 43.79279,-8.86788 26.25613,-3.19125 38.5272,-5.94014 45.48707,-10.18978 5.24209,-3.20075 37.96443,-24.54169 72.71632,-47.42431 34.75187,-22.8826 63.85568,-41.60474 64.67514,-41.60474 0.81943,0 1.4899,32.47373 1.4899,72.16385 v 72.16384 h -27.27165 c -27.251,0 -27.27929,0.008 -37.4435,9.3173 l -10.17186,9.31733 -0.93597,27.44538 -0.93597,27.44541 H 232.76598 102.30929 Z m 68.26854,105.97513 c 2.59758,-3.1299 2.79438,-5.55765 0.71744,-8.85028 -4.20005,-6.65846 -49.35384,-6.65846 -53.55388,0 -2.07694,3.29263 -1.88014,5.72038 0.71744,8.85028 5.14672,6.20141 46.97228,6.20141 52.119,0 z m 55.4409,-68.04535 c 5.25962,-5.25962 5.37061,-7.76395 0.52243,-11.78758 -2.60122,-2.15882 -19.47333,-2.88963 -54.85013,-2.37581 -45.89166,0.66653 -51.40046,1.24348 -54.1104,5.66711 -2.41485,3.94193 -1.96194,5.70856 2.26891,8.85028 8.08391,6.0029 100.11917,5.69602 106.16919,-0.354 z M 147.24149,294.7119 c 0,-8.02154 -10.24289,-12.73695 -21.51949,-9.9067 -17.57541,4.41114 -10.18364,18.70949 9.02674,17.46096 11.25914,-0.73176 12.49275,-1.47772 12.49275,-7.55426 z m 168.98638,2.18428 c 3.8325,-12.07512 -2.5398,-13.14252 -78.45989,-13.14252 -69.32859,0 -80.99541,1.30824 -80.99541,9.08225 0,9.2778 5.77272,9.9799 82.05604,9.9799 75.14152,0 75.52987,-0.0297 77.39926,-5.91963 z m -132.72358,-73.73291 0.86167,-7.48871 h -32.69813 c -19.05464,0 -33.40666,1.14643 -34.3962,2.74754 -0.93394,1.51114 -0.9116,5.22548 0.0496,8.25409 1.64172,5.17262 3.67541,5.46014 33.53453,4.74117 l 31.78681,-0.76539 z m 151.63551,0.68079 v -6.80791 l -67.08896,-0.72769 c -57.91201,-0.62815 -67.30584,-0.16255 -68.67442,3.40395 -0.87201,2.27241 -0.87201,5.99089 0,8.26329 1.36858,3.56648 10.76241,4.0321 68.67442,3.40395 l 67.08896,-0.72768 z m 63.7079,4.4299 c 1.70696,-2.05678 2.33863,-5.73305 1.40365,-8.16949 -1.39189,-3.62723 -6.04681,-4.42991 -25.69011,-4.42991 -24.98927,0 -28.94963,1.91137 -23.98026,11.57345 2.01878,3.92514 6.21712,4.76554 23.80707,4.76554 14.78498,0 22.31102,-1.15064 24.45965,-3.73959 z"
     id="path864"
     inkscape:connector-curvature="0"
     transform="matrix(0.75093997,0,0,0.75093997,-15.282888,0)" />
  <path
     style="fill:#ffffff;fill-opacity:1;stroke-width:2.72316384"
     d="m 382.79517,522.71018 c 0,-16.27434 0.71047,-18.72022 6.5491,-22.54584 4.49799,-2.94719 11.34798,-4.03294 21.8716,-3.46673 l 15.32249,0.82441 -21.8716,21.72143 -21.87159,21.72142 z"
     id="path866"
     inkscape:connector-curvature="0"
     transform="matrix(0.75093997,0,0,0.75093997,-15.282888,0)" />
  <path
     style="fill:#ffffff;fill-opacity:1;stroke-width:0.68079096"
     d="m 287.46468,403.18858 c -2.47903,-3.78358 -4.2575,-7.10351 -3.95215,-7.37761 1.14123,-1.02444 269.33435,-177.02369 269.48629,-176.84788 0.0871,0.10084 2.15695,3.23916 4.59956,6.97403 l 4.4411,6.79068 -7.93362,5.17266 c -4.3635,2.84497 -62.61817,41.11846 -129.45482,85.0522 -66.83665,43.93374 -124.0317,81.50755 -127.10011,83.49735 l -5.57892,3.6178 z"
     id="path868"
     inkscape:connector-curvature="0"
     transform="matrix(0.75093997,0,0,0.75093997,-15.282888,0)" />
  <path
     style="fill:#ffffff;fill-opacity:1;stroke-width:2.72316384"
     d="m 456.77504,167.81248 c 0,-51.72158 -0.13446,-52.97543 -6.30263,-58.77012 -5.3424,-5.01893 -9.49123,-5.92101 -27.23163,-5.92101 H 402.31177 V 92.049668 c 0,-21.436352 -0.36486,-21.606287 -46.3896,-21.606287 H 315.17052 V 59.550726 48.65807 h 87.14125 c 83.51036,0 87.36817,0.22693 92.58757,5.446328 5.14934,5.149346 5.44632,9.077213 5.44632,72.033022 v 66.58669 l -11.57344,7.80521 c -6.3654,4.29287 -16.16879,10.57881 -21.78531,13.96874 l -10.21187,6.16353 z"
     id="path978"
     inkscape:connector-curvature="0"
     transform="matrix(0.75093997,0,0,0.75093997,-15.282888,0)" />
  <path
     style="fill:#ffffff;fill-opacity:1;stroke-width:2.72316384"
     d="M 456.77504,167.31334 V 114.4093 l -7.17515,-5.64398 c -5.78377,-4.54951 -11.06443,-5.64397 -27.23164,-5.64397 H 402.31177 V 91.061623 c 0,-19.556427 -2.46422,-20.618242 -47.84988,-20.618242 H 315.17052 V 59.550726 48.65807 h 87.14125 c 83.51036,0 87.36817,0.22693 92.58757,5.446328 5.14956,5.14956 5.44632,9.077213 5.44632,72.080852 v 66.63453 l -20.30075,13.69881 c -11.16541,7.53434 -20.9688,13.6988 -21.78531,13.6988 -0.8165,0 -1.48456,-23.80682 -1.48456,-52.90405 z"
     id="path980"
     inkscape:connector-curvature="0"
     transform="matrix(0.75093997,0,0,0.75093997,-15.282888,0)" />
  <path
     style="fill:#ffffff;fill-opacity:1;stroke-width:2.72316384"
     d="M 102.76374,335.95186 V 119.46033 h 6.80791 c 6.20628,0 6.80791,1.0348 6.80791,11.7096 0,6.44029 1.47051,13.18012 3.2678,14.97741 2.45504,2.45504 37.35258,3.26779 140.31034,3.26779 h 137.04254 l 2.65576,-6.98518 c 1.46068,-3.84186 2.65577,-10.63768 2.65577,-15.10183 v -8.11663 l 18.38135,0.80521 18.38136,0.80521 0.70064,55.82486 0.70062,55.82486 -96.86678,63.78602 -96.86678,63.78602 -18.99666,32.21423 c -10.44816,17.71783 -22.0111,34.18937 -25.69543,36.60346 -7.52943,4.93347 -8.88743,13.98652 -2.46759,16.45006 2.32715,0.89301 8.76063,-0.29889 14.29661,-2.64869 5.53598,-2.34979 25.26593,-6.24053 43.84432,-8.64607 18.57839,-2.40556 36.19166,-5.665 39.1406,-7.24323 2.94894,-1.57821 33.96237,-21.672 68.91873,-44.65286 34.95635,-22.98085 66.05368,-43.11954 69.10515,-44.75264 5.5173,-2.95277 5.54815,-2.56745 5.54815,69.29038 v 72.25965 h -25.46735 c -22.00053,0 -26.72154,0.84519 -34.68067,6.20887 -13.23658,8.92013 -16.01486,16.44322 -16.06042,43.48887 l -0.0401,23.82768 H 233.47561 102.76374 Z m 68.0791,106.20339 c 2.70461,-3.25887 2.70461,-4.91063 0,-8.1695 -2.48286,-2.99166 -9.07096,-4.08474 -24.61919,-4.08474 -22.98789,0 -29.84409,1.50583 -29.84409,6.55463 0,7.39006 7.04864,9.78435 28.80442,9.78435 16.47238,0 23.15123,-1.06323 25.65886,-4.08474 z m 52.87898,-65.64729 c 2.3691,-0.90911 4.30746,-4.4322 4.30746,-7.82909 0,-7.96726 -7.78386,-9.58012 -46.23472,-9.58012 -55.33938,0 -71.84104,3.95328 -62.66305,15.01208 2.74457,3.307 12.25234,4.05007 51.82205,4.05007 26.65343,0 50.39915,-0.74382 52.76826,-1.65294 z m -75.63575,-78.71508 c 2.94991,-7.68735 -4.46356,-12.54018 -17.82768,-11.66991 -9.66887,0.62964 -12.68677,1.96149 -13.44148,5.93196 -1.30606,6.87101 4.01061,9.76554 18.02948,9.81568 7.92384,0.0283 12.16533,-1.27801 13.23968,-4.07773 z m 168.20167,-0.31047 c 4.25578,-11.09038 -1.07044,-11.90909 -77.47652,-11.90909 -40.1331,0 -74.90763,0.74382 -77.27673,1.65293 -5.12129,1.96523 -5.74983,10.92703 -0.90351,12.88256 1.87217,0.75544 37.27835,1.47027 78.6804,1.58851 67.13158,0.19171 75.46038,-0.26434 76.97636,-4.21491 z m 80.08791,-67.94881 c 1.97721,-0.6173 3.20263,-3.88505 2.72316,-7.26166 -0.81166,-5.71591 -2.39219,-6.19337 -22.91869,-6.92344 -23.13617,-0.82289 -30.25018,2.14696 -26.78342,11.18119 2.31807,6.04079 31.31343,7.8948 46.97895,3.00391 z m -213.27857,-6.59304 c 0,-6.80694 -0.004,-6.80802 -30.23128,-7.57411 -24.38619,-0.61806 -30.89486,0.0334 -33.66341,3.36928 -1.88768,2.27451 -2.70579,6.0283 -1.81803,8.34176 1.35301,3.52588 6.79845,4.08212 33.66341,3.43864 l 32.04931,-0.76766 z m 152.25281,3.73959 c 4.17983,-10.89247 -1.61085,-11.90909 -67.83473,-11.90909 -52.72797,0 -63.89007,0.67789 -66.68874,4.05007 -1.84869,2.22754 -2.6499,5.90381 -1.78048,8.16949 1.35134,3.52154 11.23419,4.11943 68.0924,4.11943 58.91258,0 66.70585,-0.50612 68.21155,-4.4299 z"
     id="path982"
     inkscape:connector-curvature="0"
     transform="matrix(0.75093997,0,0,0.75093997,-15.282888,0)" />
  <path
     style="fill:#ffffff;fill-opacity:1;stroke-width:2.72316384"
     d="M 159.95018,109.92926 V 86.782364 l 26.55085,-0.295556 c 14.60297,-0.162546 33.90339,-1.081621 42.88983,-2.042373 l 16.33899,-1.746817 1.66932,-20.518359 c 2.72624,-33.509306 15.48894,-49.810555 31.0271,-39.629567 12.07607,7.912544 17.66063,20.180399 17.67193,38.820687 0.0163,26.90237 -2.63661,25.411985 45.23373,25.411985 h 41.91769 v 23.146896 23.14689 H 271.5999 159.95018 Z"
     id="path984"
     inkscape:connector-curvature="0"
     transform="matrix(0.75093997,0,0,0.75093997,-15.282888,0)" />
  <path
     style="fill:#ffffff;fill-opacity:1;stroke-width:0.68079096"
     d="m 565.61338,208.15032 c -5.48156,-8.33118 -11.60275,-17.67046 -13.60266,-20.75395 l -3.63619,-5.60635 3.5716,-1.83351 c 7.04049,-3.61429 15.85944,-2.05492 21.06719,3.72511 1.2454,1.38225 4.31121,5.72992 6.81291,9.66149 6.49546,10.20801 7.27512,15.17131 3.54499,22.56742 -1.43741,2.8501 -5.89345,7.38738 -7.2551,7.38738 -0.29495,0 -5.02119,-6.81642 -10.50274,-15.14759 z"
     id="path986"
     inkscape:connector-curvature="0"
     transform="matrix(0.75093997,0,0,0.75093997,-15.282888,0)" />
  <path
     style="fill:#ffffff;fill-opacity:1;stroke-width:0.68079096"
     d="m 269.08368,375.23277 -4.48885,-6.742 134.52026,-88.42482 c 73.98614,-48.63365 134.75656,-88.52184 135.04539,-88.64042 0.56355,-0.23137 9.84573,13.35144 9.38089,13.72725 -1.38604,1.12055 -268.16272,176.12891 -268.93875,176.4267 -0.73723,0.28291 -2.3063,-1.5215 -5.51894,-6.34671 z"
     id="path988"
     inkscape:connector-curvature="0"
     transform="matrix(0.75093997,0,0,0.75093997,-15.282888,0)" />
  <path
     style="fill:#ffffff;fill-opacity:1;stroke-width:0.68079096"
     d="m 287.36792,403.19693 c -2.37632,-3.65075 -4.20898,-6.83881 -4.07258,-7.08459 0.13639,-0.24577 25.90494,-17.30639 57.26344,-37.91248 31.35849,-20.60608 91.94002,-60.41074 134.62561,-88.45478 l 77.61017,-50.98917 4.58382,6.85355 c 3.56328,5.32767 4.39692,7.02481 3.74435,7.62278 -1.25187,1.14714 -268.51308,176.6024 -269.00858,176.6024 -0.23411,0 -2.36992,-2.98697 -4.74623,-6.63771 z"
     id="path990"
     inkscape:connector-curvature="0"
     transform="matrix(0.75093997,0,0,0.75093997,-15.282888,0)" />
  <path
     style="fill:#ffffff;fill-opacity:1;stroke-width:0.68079096"
     d="m 231.80163,419.72045 c 0,-0.9842 21.26046,-36.77706 21.84506,-36.77706 0.38441,0 5.43143,7.19863 11.21562,15.99695 l 10.5167,15.99695 -20.93771,2.51854 c -22.98843,2.76522 -22.63967,2.73033 -22.63967,2.26462 z"
     id="path992"
     inkscape:connector-curvature="0"
     transform="matrix(0.75093997,0,0,0.75093997,-15.282888,0)" />
</svg>
