<?xml version="1.0" encoding="UTF-8" standalone="no"?>
<!-- Generator: Adobe Illustrator 19.0.0, SVG Export Plug-In . SVG Version: 6.00 Build 0)  -->

<svg
   xmlns:dc="http://purl.org/dc/elements/1.1/"
   xmlns:cc="http://creativecommons.org/ns#"
   xmlns:rdf="http://www.w3.org/1999/02/22-rdf-syntax-ns#"
   xmlns:svg="http://www.w3.org/2000/svg"
   xmlns="http://www.w3.org/2000/svg"
   xmlns:sodipodi="http://sodipodi.sourceforge.net/DTD/sodipodi-0.dtd"
   xmlns:inkscape="http://www.inkscape.org/namespaces/inkscape"
   version="1.1"
   id="Layer_1"
   x="0px"
   y="0px"
   viewBox="0 0 512 512"
   style="enable-background:new 0 0 512 512;"
   xml:space="preserve"
   sodipodi:docname="stand-by.svg"
   inkscape:version="0.92.4 (5da689c313, 2019-01-14)"><metadata
   id="metadata45"><rdf:RDF><cc:Work
       rdf:about=""><dc:format>image/svg+xml</dc:format><dc:type
         rdf:resource="http://purl.org/dc/dcmitype/StillImage" /></cc:Work></rdf:RDF></metadata><defs
   id="defs43" /><sodipodi:namedview
   pagecolor="#ffffff"
   bordercolor="#666666"
   borderopacity="1"
   objecttolerance="10"
   gridtolerance="10"
   guidetolerance="10"
   inkscape:pageopacity="0"
   inkscape:pageshadow="2"
   inkscape:window-width="1366"
   inkscape:window-height="705"
   id="namedview41"
   showgrid="false"
   inkscape:zoom="0.4609375"
   inkscape:cx="725.82362"
   inkscape:cy="-15.138263"
   inkscape:window-x="-8"
   inkscape:window-y="-8"
   inkscape:window-maximized="1"
   inkscape:current-layer="Layer_1" />

<path
   inkscape:connector-curvature="0"
   style="fill:#ff7004;stroke:none;stroke-opacity:1;fill-opacity:1"
   d="m 406.65,119.9 c -18.9,-17.1 -46.501,-15 -63.001,1.8 -16.8,17.1 -17.999,46.201 3.001,65.4 33.6,30.3 50.4,76.5 42.299,123.001 C 378.15,373.1 323.249,421.7 256.05,422 c -69,0 -121.8,-49.799 -132.599,-109.799 -8.701,-46.501 7.2,-93.301 41.999,-125.101 21,-19.199 19.801,-48.3 3.001,-65.4 -16.5,-16.8 -44.101,-18.9 -63.301,-1.5 -52.798,47.999 -80.4,118.801 -72.9,190.499 12.3,114.002 108.3,201.001 223.8,201.301 0.3,0 0.3,0 0.601,0 114.3,0 207.9,-87.299 222.299,-193.801 9.9,-74.099 -17.101,-148.2 -72.3,-198.299 z"
   id="path2" /><path
   inkscape:connector-curvature="0"
   style="fill:#ff8904;stroke:none;stroke-opacity:1;fill-opacity:1"
   d="M 478.949,318.199 C 464.55,424.701 370.95,512 256.65,512 c -0.3,0 -0.3,0 -0.601,0 v -90 c 67.2,-0.3 122.1,-48.9 132.9,-111.899 C 397.05,263.6 380.25,217.4 346.65,187.1 c -21,-19.199 -19.801,-48.3 -3.001,-65.4 16.5,-16.8 44.101,-18.9 63.001,-1.8 55.199,50.099 82.2,124.2 72.299,198.299 z"
   id="path4" />
<path
   style="fill:#ff7004;fill-opacity:1"
   d="M256.05,0c-24.901,0-45,20.099-45,45v182c0,24.901,20.099,45,45,45s45-20.099,45-45V45  C301.05,20.099,280.95,0,256.05,0z"
   id="path6" />
<path
   style="fill:#ff8904;fill-opacity:1"
   d="M301.05,45v182c0,24.901-20.099,45-45,45V0C280.95,0,301.05,20.099,301.05,45z"
   id="path8" />
<g
   id="g10">
</g>
<g
   id="g12">
</g>
<g
   id="g14">
</g>
<g
   id="g16">
</g>
<g
   id="g18">
</g>
<g
   id="g20">
</g>
<g
   id="g22">
</g>
<g
   id="g24">
</g>
<g
   id="g26">
</g>
<g
   id="g28">
</g>
<g
   id="g30">
</g>
<g
   id="g32">
</g>
<g
   id="g34">
</g>
<g
   id="g36">
</g>
<g
   id="g38">
</g>
</svg>